PathFileType	4	(X/Y/Z)	 s09c0402.trc
DataRate	CameraRate	NumFrames	NumMarkers	Units	OrigDataRate	OrigDataStartFrame	OrigNumFrames
200	200	4	50	mm	200	501	2000
Frame#	Time	racr			lacr			c7			jug			rlel			rdr			llel			ldr			s2			lic			ric			lasi			rasi			rpsi			lpsi			rgt			lgt			rth1			rth2			rth3			rth4			rlfc			rmfc			rsh1			rsh2			rsh3			rsh4			rlmal			rmmal			rcal			rtoe			rmt5			lth1			lth2			lth4			lth3			llfc			lmfc			llmal			lmmal			lcal			lmt5			lsh1			lsh2			lsh3			lsh4			ltoe			SBIKE			LBIKE			RBIKE			
		X1	Y1	Z1	X2	Y2	Z2	X3	Y3	Z3	X4	Y4	Z4	X5	Y5	Z5	X6	Y6	Z6	X7	Y7	Z7	X8	Y8	Z8	X9	Y9	Z9	X10	Y10	Z10	X11	Y11	Z11	X12	Y12	Z12	X13	Y13	Z13	X14	Y14	Z14	X15	Y15	Z15	X16	Y16	Z16	X17	Y17	Z17	X18	Y18	Z18	X19	Y19	Z19	X20	Y20	Z20	X21	Y21	Z21	X22	Y22	Z22	X23	Y23	Z23	X24	Y24	Z24	X25	Y25	Z25	X26	Y26	Z26	X27	Y27	Z27	X28	Y28	Z28	X29	Y29	Z29	X30	Y30	Z30	X31	Y31	Z31	X32	Y32	Z32	X33	Y33	Z33	X34	Y34	Z34	X35	Y35	Z35	X36	Y36	Z36	X37	Y37	Z37	X38	Y38	Z38	X39	Y39	Z39	X40	Y40	Z40	X41	Y41	Z41	X42	Y42	Z42	X43	Y43	Z43	X44	Y44	Z44	X45	Y45	Z45	X46	Y46	Z46	X47	Y47	Z47	X48	Y48	Z48	X49	Y49	Z49	X50	Y50	Z50	
501	2.5050	602.962175	1270.750663	-94.073978	606.368695	1252.855744	-411.978449	581.729760	1291.391866	-250.585014	560.736436	1155.486844	-248.746637	505.126295	1056.812276	34.844675	682.659185	909.158768	-35.365470	474.470442	1042.354228	-556.099411	663.466888	912.769928	-463.261634	83.895832	1160.853550	-215.937262	214.792288	1131.058153	-365.701522	233.572813	1104.715697	-83.472674	223.585664	1065.412118	-344.607458	251.250626	1040.619686	-106.504009	127.511202	1175.046122	-157.097174	120.518958	1191.431304	-264.504148	160.875412	972.642958	-38.119568	154.392246	1051.514849	-424.325955	217.887571	846.028538	-52.799702	271.923746	778.904913	-67.773970	278.897116	691.206896	-81.688151	298.384181	791.604159	-90.254381	297.815285	595.046699	-115.888073	268.516896	582.491072	-210.377076	223.770313	522.622502	-78.261958	191.096467	439.254529	-91.013482	124.590497	384.185570	-84.224287	210.140498	428.484374	-124.282186	63.308057	300.988469	-79.148219	65.910964	311.285810	-159.275816	-23.652346	274.836734	-117.044252	236.544232	233.072955	-126.982915	155.045439	226.602103	-60.201676	264.924410	976.955655	-414.659792	348.459057	961.968764	-407.278365	363.099114	990.597351	-386.337407	418.065976	903.626931	-409.458641	495.199359	830.987839	-392.484805	508.687957	814.679072	-292.771070	329.206241	502.350227	-409.859768	342.370338	512.123579	-333.758113	252.975327	462.338037	-373.135734	422.694408	424.441578	-434.517127	453.838748	741.504727	-417.342848	433.599997	656.582778	-409.257325	372.329258	592.329933	-410.924947	455.496808	647.401823	-378.002411	512.104986	445.114321	-364.184388	-65.015069	852.916781	-238.904386	20.905740	84.828959	-442.212483	21.044140	84.007822	-43.812007	
502	2.5100	604.015390	1272.616275	-93.584304	607.299365	1254.248891	-413.114343	583.148960	1293.905463	-250.497739	562.467080	1157.598376	-249.221674	506.221569	1058.078709	34.243021	682.653117	909.173912	-36.224323	475.053485	1043.308642	-556.133171	663.349512	912.831840	-463.292753	85.638146	1161.368962	-215.396521	216.276005	1132.284155	-365.352107	235.674377	1105.336379	-83.215425	225.575767	1066.317967	-344.333924	253.293381	1041.368122	-106.603372	129.394199	1175.576501	-156.646949	122.053139	1192.131585	-263.998630	163.248951	973.212718	-37.946130	156.095949	1052.179538	-423.932936	220.033488	846.321063	-52.724219	273.600717	778.865800	-67.790049	280.046022	691.177816	-81.603770	299.996265	791.355339	-90.441203	298.213395	594.905095	-115.547825	268.914265	582.357306	-209.923368	224.218136	522.416630	-77.892361	191.833155	438.879164	-90.690868	125.498376	383.727554	-84.011296	210.781850	428.473616	-123.575637	64.332784	300.288786	-78.974792	66.904823	310.699212	-159.058744	-22.509281	274.342159	-116.882824	237.513336	231.644962	-126.976845	155.886256	225.467257	-60.235730	266.869908	977.242271	-414.393582	350.471461	962.192959	-406.980462	365.156444	990.801691	-386.135153	419.984434	903.772253	-409.167297	496.960129	831.139659	-392.040202	510.346122	814.768813	-292.353955	328.960063	503.556329	-409.615650	342.123700	513.149050	-333.524165	252.490074	463.852729	-373.030406	422.052535	425.491728	-434.474090	455.148918	741.882248	-416.899592	434.349092	657.144002	-408.885250	372.553492	593.295588	-410.776517	456.079860	647.859638	-377.574076	511.524744	446.031240	-364.264364	-65.013431	852.910128	-238.866763	20.935803	84.931743	-442.138437	21.074244	83.953073	-43.798073	
503	2.5150	605.110313	1274.455876	-93.138462	608.262904	1255.516094	-414.311832	584.560289	1296.582856	-250.898049	564.291431	1159.919812	-249.592740	507.208693	1059.358599	33.688815	682.567808	909.192203	-37.017201	475.768371	1044.260537	-556.123265	663.281632	912.794223	-463.319224	87.336257	1161.862995	-214.938025	217.720923	1133.475511	-365.159762	237.794851	1106.057243	-82.987173	227.597222	1067.159915	-344.177102	255.321639	1042.240527	-106.666929	131.261190	1176.178199	-156.269061	123.526285	1192.861014	-263.541160	165.613720	973.796850	-37.884817	157.948971	1052.750654	-423.677892	222.213611	846.708709	-52.668292	275.463502	779.089696	-67.767037	281.307517	691.147029	-82.003063	301.776971	791.330513	-90.614679	298.845682	594.956142	-115.077275	269.577736	582.322455	-209.447362	224.825378	522.439338	-77.483621	192.630920	438.859459	-90.303675	126.422430	383.460182	-83.771451	211.783949	428.416755	-123.045774	65.425132	299.964841	-78.782211	68.282138	310.226480	-158.882289	-21.408836	274.238161	-116.721871	238.378740	230.291253	-126.974957	156.745901	224.366280	-60.257826	268.903953	977.348975	-414.133735	352.469775	962.206290	-406.746148	367.207630	990.834613	-385.993300	421.910645	903.668477	-408.794581	498.612318	831.026878	-391.541066	511.922507	814.675798	-291.945943	328.860677	504.625544	-409.357611	341.703319	514.222254	-333.398676	252.005390	465.076813	-372.891522	421.457814	426.529042	-434.488249	456.342045	742.027205	-416.438950	434.986543	657.542947	-408.463214	372.798252	594.068451	-410.494324	456.586024	648.059643	-377.085029	511.009861	446.674258	-364.171554	-65.010391	852.913502	-238.849717	20.905494	84.848153	-442.199867	21.058912	84.001476	-43.801423	
504	2.5200	606.073406	1276.338172	-92.672319	609.124281	1256.981550	-415.589231	585.593498	1299.955583	-250.221791	566.297943	1162.409970	-250.352680	508.120086	1060.565104	33.144062	682.458399	909.245149	-37.843540	476.403401	1045.108473	-556.135644	663.259901	912.588899	-463.474445	88.945360	1162.342872	-214.491145	219.102476	1134.622973	-364.958353	239.827569	1106.874573	-82.792009	229.605160	1068.052533	-344.158858	257.460544	1043.120673	-106.764737	133.039275	1176.727324	-155.982235	124.924996	1193.499867	-263.089537	167.927216	974.488267	-37.799390	159.734193	1053.030262	-423.256912	224.500132	847.191559	-52.606567	277.481733	779.303355	-67.685830	282.864301	691.320623	-81.810605	303.711584	791.474745	-90.634308	299.679470	595.204251	-114.607916	270.503787	582.432710	-208.933883	225.527476	522.630152	-77.104458	193.588070	439.045633	-89.809919	127.406222	383.403616	-83.489205	212.913789	428.513632	-122.460330	66.685930	299.577802	-78.547703	69.716536	309.892141	-158.695213	-20.211019	274.499131	-116.658088	239.291258	228.924906	-126.992540	157.540366	223.446129	-60.289609	270.937895	977.294237	-413.796514	353.966883	961.994228	-407.070976	369.287599	990.782559	-385.881844	423.841386	903.386190	-408.336592	500.244562	830.707189	-391.064202	513.378421	814.293796	-291.566312	328.745432	505.466711	-409.116355	341.364278	514.966163	-333.150994	251.465025	466.172936	-372.875699	420.912352	427.310491	-434.464669	457.481991	741.966032	-415.927204	435.581670	657.721275	-408.043485	373.028029	594.587990	-410.220642	457.033388	648.092489	-376.627137	510.529734	447.337773	-364.125352	-65.022666	852.932381	-238.829368	20.891541	84.847097	-442.212011	21.061050	83.995951	-43.813808	
